<svg xmlns="http://www.w3.org/2000/svg" viewBox="0 0 42 42"><defs><style>.e314b2f7-b961-4614-9693-6c49aa9d9a34{fill:#fff;}</style></defs><title>资源 8</title><g id="ed9203e4-133e-4231-9203-a0850b62e8f5" data-name="图层 2"><g id="fc28a3f3-e795-4a4a-924b-72ef25ece0e1" data-name="图层 1"><path id="e9912080-6196-49c6-8ddf-ac03925c0cd4" data-name="Path 127" class="e314b2f7-b961-4614-9693-6c49aa9d9a34" d="M37,0H5A5,5,0,0,0,0,5V37a5,5,0,0,0,5,5H37a5,5,0,0,0,5-5V5A5,5,0,0,0,37,0ZM33,15H31c-2.1,0-3,.5-3,2v3h5l-1,5H28V40H23V25H19V20h4V17c0-4,2-7,6-7s4,1,4,1Z"/></g></g></svg>