<svg xmlns="http://www.w3.org/2000/svg" viewBox="0 0 42 42"><defs><style>.f7ef51c8-5fea-4b4d-ae46-2c38786eed6b{fill:#fff;}</style></defs><title>资源 10</title><g id="a7c18a76-e132-45f3-a64c-ba88a783548d" data-name="图层 2"><g id="e7921218-0fa2-4ff5-ac42-986bcf043e93" data-name="图层 1"><path id="f9639e0b-fc90-4ab6-90df-994208b6ce44" data-name="Path 13" class="f7ef51c8-5fea-4b4d-ae46-2c38786eed6b" d="M12.4,0A12.5,12.5,0,0,0,0,12.4V29.6A12.5,12.5,0,0,0,12.4,42H29.6A12.5,12.5,0,0,0,42,29.6V12.4A12.5,12.5,0,0,0,29.6,0ZM32.5,7.6a2,2,0,0,1,1.9,1.9,2,2,0,1,1-1.9-1.9ZM21,10.5A10.5,10.5,0,1,1,10.5,21,10.5,10.5,0,0,1,21,10.5Zm0,1.9A8.6,8.6,0,1,0,29.6,21h0A8.7,8.7,0,0,0,21,12.4Z"/></g></g></svg>