<svg xmlns="http://www.w3.org/2000/svg" viewBox="0 0 40 16.6"><defs><style>.ff78a190-634d-43f9-b2a7-32fdb14bffef{fill:#ed1a29;}.babec7a3-9674-491f-8926-6be8c7d12590{fill:#fff;}</style></defs><title>资源 1</title><g id="ba80a725-c840-49bf-88ad-e86261f4a310" data-name="图层 2"><g id="f4135e4f-e5f7-4d86-92e3-dd5c6449b340" data-name="图层 1"><g id="efd3ec62-f17c-45ff-8f0a-e450d6cb319c" data-name="search_btn"><path id="eefcdaad-73dd-429f-beae-3da9565620a4" data-name="shape" class="ff78a190-634d-43f9-b2a7-32fdb14bffef" d="M0,0,16.6,16.6H40L23.4,0Z"/><path id="b82f5033-406b-4699-b241-e89c1e7adb91" data-name="search" class="babec7a3-9674-491f-8926-6be8c7d12590" d="M25,14.8l-2.5-2.6a5.8,5.8,0,0,1-7.3-.7,5.6,5.6,0,0,1,0-8,5.7,5.7,0,0,1,8.7,7.2l2.6,2.6Zm-5.8-11a3.8,3.8,0,0,0-2.6,1.1,3.6,3.6,0,0,0,0,5.2,3.7,3.7,0,0,0,5.2,0,3.7,3.7,0,0,0,0-5.2A3.6,3.6,0,0,0,19.2,3.8Z"/></g></g></g></svg>