<svg id="b5636b7b-ddeb-4f2d-b1a9-c7a8711fe8e3" data-name="图层 1" xmlns="http://www.w3.org/2000/svg" viewBox="0 0 400 115.9"><defs><style>.ed26c513-8a3b-4622-a280-b7a68c8f5576{fill:#fff;}.e3479b90-d191-4244-8abc-d09d4784356f{fill:#ed1a29;}</style></defs><title>zima_logo</title><g id="e33a5e88-6a55-4c22-bb0e-0ad22d9e5203" data-name="logo_full"><g id="a19e87e5-8688-4487-adeb-d5be8116c459" data-name="zima_logo"><rect class="ed26c513-8a3b-4622-a280-b7a68c8f5576" x="32.7" width="100.8" height="10.08" rx="1"/><rect class="ed26c513-8a3b-4622-a280-b7a68c8f5576" x="143.5" y="20.2" width="10.1" height="80.6" rx="1"/><path class="ed26c513-8a3b-4622-a280-b7a68c8f5576" d="M370.2,100.8h-8.5a2,2,0,0,1-1.5-.6l-29-29a2,2,0,0,0-1.4-.6H281.4a2.1,2.1,0,0,1-2.1-2V62.5a2.1,2.1,0,0,1,2.1-2h34.3a2,2,0,0,0,1.4-3.4L277.8,17.8a2,2,0,0,0-3.5,1.4V98.8a2,2,0,0,1-2,2h-6a2,2,0,0,1-2.1-2V2.1a2,2,0,0,1,2.1-2h7.2a2,2,0,0,1,1.4.6l96.7,96.7A2,2,0,0,1,370.2,100.8Z" transform="translate(0.2 -0.1)"/><path class="ed26c513-8a3b-4622-a280-b7a68c8f5576" d="M214.5,43.9l-4.3,4.3a2.1,2.1,0,0,1-2.8,0L177,17.8a2,2,0,0,0-3.4,1.4V98.8a2,2,0,0,1-2.1,2h-6a2,2,0,0,1-2-2V2.1a2,2,0,0,1,2-2h7.2a1.7,1.7,0,0,1,1.4.6L214.5,41A2.1,2.1,0,0,1,214.5,43.9Z" transform="translate(0.2 -0.1)"/><rect class="ed26c513-8a3b-4622-a280-b7a68c8f5576" x="32.7" y="90.7" width="100.8" height="10.08" rx="1"/><path class="ed26c513-8a3b-4622-a280-b7a68c8f5576" d="M120.4,15.2a2,2,0,0,1,1.4,3.4l-6.6,6.7L60.7,79.7l-6.4,6.4a2,2,0,0,1-1.4.6H44.3a2,2,0,0,1-1.4-3.4l6.6-6.7,51.4-51.3,9.5-9.5a2,2,0,0,1,1.5-.6Z" transform="translate(0.2 -0.1)"/><rect class="e3479b90-d191-4244-8abc-d09d4784356f" x="143.5" width="10.1" height="10.08" rx="1"/><path class="ed26c513-8a3b-4622-a280-b7a68c8f5576" d="M254.2,2.1V98.8a2,2,0,0,1-2.1,2h-6a2,2,0,0,1-2-2V19.2a2,2,0,0,0-3.5-1.4L220.4,38a2.1,2.1,0,0,1-2.9,0l-4.2-4.3a1.9,1.9,0,0,1,0-2.8L243.5.7a2,2,0,0,1,1.4-.6h7.2A2,2,0,0,1,254.2,2.1Z" transform="translate(0.2 -0.1)"/></g><g id="ec134b26-0607-4d24-a111-08d850d91fae" data-name="line"><rect class="e3479b90-d191-4244-8abc-d09d4784356f" y="110.8" width="400" height="5.04"/></g></g></svg>